<svg xmlns="http://www.w3.org/2000/svg" width="346" height="157"><g fill="#86A20B"><path fill-rule="evenodd" clip-rule="evenodd" d="M20.343 36.012l97.979-10.21 10.317 97.136c.461 4.346-2.72 8.275-7.067 8.727l-90.098 9.393c-4.348.453-8.283-2.732-8.743-7.08L13.275 44.74c-.461-4.346 2.72-8.274 7.068-8.728zm32.269 66.367c-.798 0-1.72-.088-3.022-.35a3.228 3.228 0 01-2.087-1.342 2.847 2.847 0 01-.395-2.348l4.368-16.82c-.542.1-1.019.281-1.417.555-.872.605-1.342 1.639-1.318 2.889.022 1.68-1.377 3.061-3.161 3.07-1.778.047-3.238-1.279-3.268-2.98-.046-3.219 1.375-6.08 3.932-7.869 2.775-1.918 6.394-2.328 10.213-1.137 1.596.505 2.521 2.074 2.121 3.619l-4.287 16.447c.632-.09 1.466-.182 2.575-.242 1.779-.098 3.292 1.184 3.4 2.846.096 1.682-1.261 3.117-3.029 3.225a20.538 20.538 0 00-2.444.24c-.768.109-1.421.197-2.181.197zm32.081.23h-.17c-1.77-.092-3.146-1.512-3.044-3.182l.311-5.676c.076-1.557 1.394-2.779 3.035-2.871 3.749-.18 6.541-1.492 7.674-3.588.728-1.363.655-2.918-.157-4.109-.958-1.383-2.789-2.061-5.158-1.926-1.771.102-3.299-1.164-3.407-2.828-.104-1.68 1.242-3.117 3.015-3.223 4.685-.279 8.663 1.419 10.91 4.637 2.083 3 2.292 6.91.537 10.174-1.848 3.438-5.462 5.756-10.174 6.602l-.169 3.119c-.091 1.614-1.509 2.871-3.203 2.871zm-8.82.444c-1.667 0-3.09-1.234-3.206-2.822a86.676 86.676 0 01-.191-8.713c-.99.266-1.997.531-3.04.816a77.717 77.717 0 01-.567 7.793c-.223 1.646-1.814 2.846-3.582 2.646-1.762-.215-3.013-1.709-2.805-3.389.234-1.768.389-3.57.468-5.361-.444.125-.911.232-1.372.34-1.716.408-3.469-.563-3.901-2.176-.446-1.623.589-3.291 2.309-3.719 1.016-.24 1.997-.477 2.972-.732-.189-3.953-.763-7.387-1.696-9.641-.635-1.563.18-3.315 1.839-3.92 1.657-.603 3.518.165 4.154 1.725 1.151 2.816 1.778 6.4 2.046 10.15 1.256-.327 2.479-.648 3.699-.95.441-3.145 1.188-6.23 2.387-8.867.708-1.539 2.595-2.24 4.226-1.573 1.626.669 2.379 2.452 1.67 3.991-.634 1.387-1.142 3.059-1.533 5.014a51.407 51.407 0 015.449-.662c1.779-.121 3.29 1.146 3.421 2.811.111 1.66-1.223 3.115-2.989 3.236-2.187.135-4.4.471-6.66.945-.178 2.998-.136 6.311.112 9.818.12 1.678-1.217 3.117-2.988 3.24h-.222zm18.088.328c-1.438 0-2.746-.926-3.103-2.303-.435-1.619.597-3.266 2.322-3.676 5.141-1.225 8.657-4.314 9.932-8.652 1.35-4.635-.087-9.824-3.683-13.213-3.734-3.522-9.248-4.537-15.54-2.904-1.305.335-2.693-.144-3.469-1.177a2.876 2.876 0 01-.024-3.48c2.233-3.034 2.729-7.465 1.35-11.866-1.649-5.192-5.562-9.444-10.853-11.787-5.291 2.343-9.213 6.595-10.857 11.787-1.383 4.401-.887 8.832 1.347 11.866.788 1.04.773 2.459-.028 3.505-.804 1.049-2.217 1.497-3.518 1.135-10.76-3.028-16.957 1.592-19.181 6.901-2.111 5.074-1.149 11.951 4.784 14.738 1.599.736 2.239 2.557 1.443 4.074-.783 1.482-2.721 2.094-4.296 1.359-8.228-3.875-11.618-13.484-7.91-22.399 2.654-6.352 9.527-12.544 20.745-11.629-.877-3.513-.751-7.45.465-11.294 2.311-7.32 8.031-13.21 15.702-16.111a3.01 3.01 0 011.302-.23c.434-.014.874.046 1.301.23 7.676 2.901 13.392 8.791 15.706 16.111 1.235 3.908 1.348 7.903.419 11.444 6.122-.292 11.545 1.557 15.656 5.43 5.2 4.902 7.285 12.424 5.333 19.148-1.879 6.424-7.188 11.133-14.56 12.883-.262.081-.518.11-.785.11zm-22.968 27.314h-.099a3.16 3.16 0 01-1.425-.281c-5.139-2.191-8.499-5.625-9.465-9.646a10.471 10.471 0 01-.217-3.453c-2.3-.121-3.932-.953-4.927-1.637-2.85-2.008-4.292-5.654-3.675-9.313.28-1.67 1.922-2.791 3.675-2.531 1.749.268 2.946 1.813 2.666 3.484-.236 1.406.24 2.846 1.165 3.49 1.393.969 3.725.146 4.992-.443 1.361-.615 3.013-.252 3.946.883a2.915 2.915 0 01-.101 3.826c-1.158 1.287-1.61 2.834-1.25 4.363.449 1.844 2.062 3.553 4.617 4.881 2.59-1.344 4.212-3.037 4.649-4.881.361-1.471-.084-2.984-1.235-4.252-.989-1.123-1.017-2.748-.042-3.879.974-1.131 2.659-1.463 4.02-.771 1.916.971 3.399 1.076 4.436.305 1.108-.838 1.413-2.33 1.298-2.756-.642-1.57.185-3.311 1.839-3.912 1.662-.598 3.521.178 4.17 1.75 1.175 2.904-.119 7.023-2.958 9.387a9.145 9.145 0 01-5.027 2.07 10.241 10.241 0 01-.223 3.389c-.957 4.021-4.333 7.447-9.513 9.646a3.11 3.11 0 01-1.316.281z"/><path d="M127.876 52.804l10.101-18.063c.922-1.603 1.758-2.593 1.758-2.593l-.008-.075s-.774.158-2 .286l-6.399.672c-.521.056-.787.383-.731.905l.167 1.599-4.427.466-.422-4.019c-.185-1.748.477-2.607 2.265-2.795l17.149-1.802.32 3.05-10.097 18.101c-.917 1.638-1.758 2.591-1.758 2.591l.008.074s.773-.155 2.002-.285l7.216-.759c.522-.054.788-.384.732-.904l-.168-1.6 4.39-.461.422 4.019c.188 1.785-.477 2.609-2.263 2.796l-17.932 1.885-.325-3.088zm22-13.635c-.247-.539-.555-.618-1.114-.56l-.52.055-.423-4.019 3.237-.339c1.562-.165 2.358.24 2.881 1.652l3.897 10.235c.365.977.583 1.969.583 1.969l.074-.007s.043-1.021.236-2.055l2.196-12.756 4.167-.439 4.835 12.018c.404.973.621 1.964.621 1.964l.074-.006s.006-1.016.161-2.047l1.646-10.818c.22-1.49.914-2.052 2.475-2.217l3.237-.34.423 4.019-.521.054c-.56.059-.806.198-.971.78l-3.038 14.762-5.319.56-4.375-10.486c-.403-.974-.662-2.001-.662-2.001l-.075.008s-.077 1.063-.268 2.099l-2.062 11.162-5.358.564-6.037-13.811zm31.312-15.552l4.092-.43.458 4.353-4.091.429-.459-4.352zm1.069 12.299c-.06-.558-.384-.786-.906-.731l-1.488.158-.421-4.019 4.501-.474c1.749-.184 2.575.52 2.76 2.268l1.224 11.645c.054.521.382.787.903.733l1.488-.158.418 3.982-4.501.473c-1.748.185-2.57-.482-2.759-2.267l-1.219-11.61zm17.887 9.142c2.529-.265 4.033-3.133 3.791-5.439l-.047-.447-.818.087c-2.457.257-6.322 1.04-6.05 3.643.132 1.266 1.187 2.359 3.124 2.156zm2.808-9.059l.521-.055-.015-.149c-.286-2.717-1.471-3.608-3.891-3.352-.854.09-2.504.488-2.395 1.531l.105 1.004-4.391.461-.211-2.009c-.366-3.498 4.575-4.431 6.547-4.638 6.325-.666 8.531 2.452 8.977 6.691l.745 7.069c.054.52.384.787.903.731l1.487-.155.421 3.982c-.646.668-1.893 2.04-1.779 3.12.125 1.19 1.964 1.148 1.964 1.148l-.749 3.614s-4.619.071-4.952-3.091c-.198-1.897 1.038-3.379 2.026-4.349l-.008-.075-.931.097c-1.673.176-2.386-.876-2.477-1.732l-.019-.187c-.045-.408-.004-.751-.004-.751l-.075.008s-1.025 3.493-5.451 3.959c-3.46.362-6.634-1.562-7.021-5.245-.627-5.988 7.51-7.294 10.673-7.627zM213.2 44.4l7.621-11.598c.742-1.169 1.414-1.915 1.414-1.915l-.007-.075s-.55.133-1.741.258l-3.421.36c-.522.054-.789.384-.733.904l.113 1.08-4.278.45-.355-3.386c-.184-1.749.479-2.608 2.263-2.795l13.915-1.463.271 2.566-7.621 11.597c-.746 1.133-1.417 1.917-1.417 1.917l.008.075s.547-.171 1.775-.301l4.166-.438c.521-.055.792-.345.733-.902l-.11-1.043 4.278-.45.352 3.349c.188 1.785-.478 2.606-2.225 2.791l-14.733 1.548-.268-2.529zm31.041-12.778c-.313-2.262-2.04-3.66-3.974-3.457-2.419.254-3.978 1.886-4.247 4.32l8.221-.863zm-4.357-7.105c5.432-.569 8.827 3.099 9.354 8.121.059.558.072 1.76.072 1.76l-13.096 1.376c.725 3.311 3.363 4.8 6.228 4.499 3.051-.32 5.098-2.68 5.098-2.68l2.316 3.067s-2.603 3.171-7.326 3.668c-6.287.66-10.671-3.469-11.237-8.864-.614-5.842 2.899-10.348 8.591-10.947zm12.608-3.505c-.06-.558-.384-.787-.906-.733l-1.486.156-.423-4.016 4.501-.475c1.748-.183 2.573.144 2.757 1.892l1.26 11.979 1.413-.149c.595-.062 1.365-.254 1.71-.894l3.241-6.396 5.246-.551-4.049 7.647c-.694 1.277-1.258 1.637-1.258 1.637l.008.075s.697.19 1.496 1.346l2.589 3.867c.354.526.742.635 1.635.542l1.267-.133.417 3.982-3.496.366c-1.601.169-2.261-.023-3.149-1.324l-3.788-5.619c-.441-.631-1.226-.587-1.821-.524l-1.041.11.872 8.297-4.725.496-2.27-21.578zm-120.003 48.11c-.055-.521-.383-.788-.904-.734l-1.599.168-.435-4.129 4.762-.5c1.785-.188 2.611.515 2.796 2.263l.911 8.668 11.645-1.224-.911-8.668c-.185-1.749.514-2.612 2.263-2.795l4.762-.501.434 4.128-1.599.169c-.521.055-.788.383-.734.905l2.256 21.467-4.873.512-1.166-11.088-11.645 1.225 1.166 11.086-4.873.514-2.256-21.466zm35.473 14.702c2.529-.266 4.035-3.133 3.791-5.44l-.046-.446-.819.086c-2.456.259-6.326 1.004-6.049 3.645.133 1.267 1.188 2.358 3.123 2.155zm2.735-9.052l.594-.063-.015-.148c-.286-2.717-1.471-3.609-3.889-3.353-.855.09-2.506.489-2.396 1.53l.105 1.005-4.391.461-.211-2.009c-.37-3.534 4.575-4.431 6.547-4.638 6.325-.666 8.532 2.452 8.979 6.691l.743 7.07c.055.52.384.787.904.732l1.488-.158.419 3.982-4.241.445c-1.748.184-2.521-.713-2.638-1.828-.051-.482-.048-.824-.048-.824l-.075.008s-1.1 3.502-5.376 3.953c-3.386.354-6.697-1.443-7.096-5.236-.625-5.953 7.509-7.295 10.597-7.62zm11.186-3.433c-.06-.559-.384-.787-.904-.733l-1.487.157-.424-4.018 4.316-.455c1.673-.177 2.604.442 2.771 2.042l.118 1.116c.074.708.05 1.198.05 1.198l.075-.008c.569-2.806 2.612-5.202 5.514-5.508.409-.042.864-.015.864-.015l.489 4.651s-.492-.026-1.162.045c-2.01.211-4.195 1.608-4.754 4.523a11.545 11.545 0 00-.083 3.13l.79 7.518-4.688.492-1.485-14.135zm22.547-7.711c2.454-.258 6.988.282 7.332 3.556l.235 2.231-4.167.438-.109-1.04c-.11-1.042-1.72-1.324-2.873-1.203-3.272.342-5.355 3.082-4.995 6.506.407 3.87 3.479 5.541 6.529 5.218 3.237-.34 5.347-3.156 5.347-3.156l2.316 3.066s-2.468 3.719-7.638 4.262c-6.251.658-10.734-3.348-11.313-8.854-.563-5.357 2.826-10.34 9.336-11.024zm23.628 5.078c-.313-2.262-2.04-3.661-3.975-3.458-2.419.254-3.977 1.885-4.247 4.32l8.222-.862zm-4.359-7.104c5.432-.569 8.828 3.099 9.355 8.122.058.557.071 1.758.071 1.758l-13.097 1.376c.726 3.311 3.365 4.801 6.229 4.498 3.05-.32 5.097-2.679 5.097-2.679l2.315 3.067s-2.6 3.171-7.325 3.669c-6.287.66-10.671-3.469-11.236-8.863-.613-5.842 2.9-10.35 8.591-10.948zm13.539 3.919c-.06-.559-.384-.788-.904-.732l-1.486.155-.425-4.017 4.316-.454c1.673-.177 2.603.44 2.771 2.041l.117 1.116c.075.708.051 1.199.051 1.199l.075-.009c.569-2.805 2.612-5.203 5.513-5.507.41-.042.865-.016.865-.016l.488 4.652s-.491-.025-1.161.046c-2.01.211-4.195 1.608-4.754 4.523a11.503 11.503 0 00-.083 3.13l.789 7.517-4.688.492-1.484-14.136zm16.254 6.492s2.711 2.537 5.948 2.197c1.45-.153 2.503-.866 2.371-2.131-.282-2.678-10.286-1.589-10.931-7.728-.399-3.794 2.839-5.904 6.782-6.317 2.566-.271 6.75.156 7.074 3.243l.207 1.973-4.166.437-.098-.929c-.094-.894-1.479-1.2-2.521-1.09-1.674.175-2.766.894-2.648 2.009.314 2.977 10.333 1.321 10.997 7.646.376 3.572-2.553 6.137-6.68 6.571-5.21.547-8.244-2.557-8.244-2.557l1.909-3.324zm16.444-11.02l-2.455.257-.396-3.756 2.567-.269-.543-5.172 4.612-.485.544 5.171 4.316-.452.395 3.756-4.315.454.805 7.664c.328 3.126 2.831 3.314 4.132 3.177a4.29 4.29 0 00.85-.165l.434 4.129s-.584.175-1.439.265c-2.642.277-7.969.049-8.638-6.313l-.869-8.261zm12.262-.349c-.245-.536-.554-.618-1.112-.559l-.521.054-.424-4.019 3.237-.339c1.563-.165 2.358.24 2.883 1.651l3.896 10.236c.365.978.583 1.969.583 1.969l.074-.008s.044-1.017.236-2.055l2.194-12.756 4.167-.439 4.836 12.018c.404.974.621 1.965.621 1.965l.074-.008s.005-1.015.161-2.047l1.645-10.818c.22-1.489.915-2.052 2.476-2.217l3.237-.34.424 4.019-.521.055c-.558.058-.807.198-.972.779l-3.037 14.762-5.32.56-4.374-10.486c-.403-.973-.661-2-.661-2l-.075.008s-.076 1.062-.269 2.097l-2.062 11.163-5.356.564-6.04-13.809zm38.958 7.078c2.529-.266 4.035-3.133 3.791-5.439l-.047-.447-.817.086c-2.457.258-6.327 1.004-6.049 3.644.132 1.267 1.188 2.359 3.122 2.156zm2.736-9.052l.594-.062-.014-.147c-.286-2.718-1.472-3.609-3.89-3.354-.855.089-2.506.49-2.396 1.532l.105 1.004-4.391.459-.212-2.008c-.37-3.534 4.575-4.432 6.547-4.638 6.325-.664 8.532 2.453 8.979 6.693l.744 7.07c.054.519.383.785.904.73l1.487-.156.419 3.982-4.241.446c-1.748.183-2.52-.714-2.638-1.83-.05-.484-.049-.824-.049-.824l-.075.008s-1.099 3.502-5.376 3.952c-3.386.355-6.695-1.441-7.095-5.236-.623-5.953 7.51-7.297 10.598-7.621zm-178.083 52.709c2.752-.289 4.127-2.238 3.837-4.992-.285-2.717-2.032-4.299-4.709-4.018l-3.982.418.946 9.004 3.908-.412zm-9.727-8.078l-2.418.252-.434-4.129 12.092-1.271c4.948-.52 8.771 2.576 9.31 7.709.542 5.137-2.542 9.07-7.492 9.592l-4.799.504.958 9.115-4.875.512-2.342-22.284zm31.616 15.595c3.088-.326 5.405-2.977 5.034-6.51-.368-3.498-3.19-5.648-6.276-5.322-3.052.322-5.365 3.01-4.996 6.506.371 3.535 3.188 5.647 6.238 5.326zm-1.666-15.849c5.805-.609 10.852 3.035 11.462 8.84.612 5.84-3.568 10.418-9.374 11.027-5.765.605-10.81-3.002-11.424-8.842-.61-5.804 3.571-10.42 9.336-11.025zm14.059-3.658c-.06-.559-.384-.789-.905-.734l-1.486.158-.424-4.018 4.501-.475c1.749-.182 2.614.516 2.797 2.264l2.007 19.086c.055.521.383.787.903.73l1.45-.15.419 3.98-4.463.469c-1.787.188-2.609-.477-2.795-2.264l-2.004-19.046zm12.646 14.392s2.711 2.537 5.948 2.195c1.45-.15 2.503-.861 2.371-2.129-.282-2.678-10.285-1.59-10.931-7.729-.399-3.793 2.84-5.904 6.782-6.318 2.568-.27 6.75.158 7.074 3.244l.207 1.973-4.166.438-.098-.928c-.094-.895-1.48-1.199-2.521-1.09-1.674.176-2.767.891-2.648 2.006.314 2.979 10.332 1.322 10.998 7.648.375 3.572-2.553 6.135-6.683 6.568-5.209.549-8.243-2.555-8.243-2.555l1.91-3.323zm15.553-17.357c-.06-.559-.385-.787-.905-.732l-1.488.156-.423-4.018 4.502-.475c1.748-.182 2.572.146 2.756 1.895l1.26 11.979 1.413-.15c.597-.061 1.366-.256 1.713-.893l3.238-6.396 5.247-.553-4.049 7.648c-.693 1.277-1.258 1.637-1.258 1.637l.008.074s.697.189 1.496 1.348l2.588 3.865c.355.527.742.635 1.637.543l1.264-.135.419 3.982-3.496.367c-1.601.168-2.261-.025-3.149-1.324l-3.788-5.619c-.442-.631-1.227-.586-1.821-.523l-1.041.109.871 8.297-4.724.496-2.27-21.578zm20.584-7.053l4.091-.43.459 4.354-4.092.43-.458-4.354zm1.067 12.301c-.058-.561-.384-.787-.905-.734l-1.488.158-.422-4.018 4.501-.475c1.75-.184 2.576.52 2.76 2.27l1.224 11.643c.055.523.383.787.904.734l1.488-.158.417 3.98-4.501.475c-1.747.184-2.569-.484-2.758-2.268l-1.22-11.607zm22.515-.149c-.313-2.26-2.041-3.658-3.975-3.455-2.42.254-3.978 1.887-4.248 4.318l8.223-.863zm-4.357-7.103c5.432-.568 8.827 3.1 9.354 8.121.059.557.072 1.76.072 1.76l-13.097 1.375c.725 3.311 3.364 4.801 6.229 4.498 3.051-.32 5.097-2.678 5.097-2.678l2.317 3.068s-2.603 3.168-7.326 3.666c-6.287.66-10.672-3.469-11.237-8.863-.614-5.842 2.898-10.349 8.591-10.947zm26.033 6.857c-.454-4.316-2.731-5.244-5.3-4.973-2.864.301-4.207 2.549-3.871 5.748.35 3.313 2.28 5.59 5.331 5.27 2.27-.238 4.291-1.767 3.84-6.045zm-6.54-8.904c4.39-.461 6.123 2.066 6.123 2.066l.073-.01-.051-.484c-.09-.854.412-1.811 1.9-1.969l4.391-.459.422 4.018-1.452.152c-.483.051-.79.346-.739.83l1.372 13.059c.684 6.51-4.118 9.498-9.064 10.018-2.382.25-4.98-.154-6.906-.93l1.06-3.871s2.477 1.016 5.377.711c2.866-.301 5.229-1.789 4.871-5.213l-.094-.893c-.049-.447-.068-1.01-.068-1.01l-.075.008c-.948 1.719-2.494 2.746-5.023 3.012-5.433.572-8.982-3.494-9.53-8.703s1.945-9.758 7.413-10.332zm26.404 13.246c3.088-.324 5.405-2.973 5.033-6.508-.367-3.496-3.189-5.646-6.276-5.322-3.051.322-5.364 3.01-4.995 6.508.37 3.535 3.188 5.642 6.238 5.322zm-1.666-15.848c5.805-.609 10.852 3.035 11.462 8.84.613 5.84-3.569 10.418-9.374 11.027-5.767.607-10.81-3.002-11.424-8.842-.61-5.804 3.569-10.419 9.336-11.025z"/></g></svg>