<svg xmlns="http://www.w3.org/2000/svg" width="140.624" height="55.101" viewBox="0 0 140.624 55.101"><path d="M55.9,52.707,51.354,9.958,8.236,14.451a3.5,3.5,0,0,0-3.111,3.842L9.287,57.565a3.516,3.516,0,0,0,3.846,3.116l39.651-4.132A3.506,3.506,0,0,0,55.9,52.707ZM20.188,42.915a1.27,1.27,0,0,1-.176-1.034l1.923-7.4a1.579,1.579,0,0,0-.625.246A1.463,1.463,0,0,0,20.729,36a1.418,1.418,0,0,1-2.83.04,4.073,4.073,0,0,1,1.73-3.463,5.083,5.083,0,0,1,4.493-.5,1.33,1.33,0,0,1,.933,1.593L23.167,40.9c.277-.04.647-.079,1.135-.106a1.388,1.388,0,0,1,1.5,1.254,1.374,1.374,0,0,1-1.333,1.417,9.032,9.032,0,0,0-1.074.106,6.48,6.48,0,0,1-.959.088,6.658,6.658,0,0,1-1.329-.154A1.456,1.456,0,0,1,20.188,42.915Zm6.055-9.941a1.313,1.313,0,0,1,.81-1.725,1.44,1.44,0,0,1,1.826.757,15.071,15.071,0,0,1,.9,4.467c.554-.145,1.091-.286,1.628-.418a14.393,14.393,0,0,1,1.052-3.9,1.446,1.446,0,0,1,1.862-.691,1.306,1.306,0,0,1,.735,1.756,10.228,10.228,0,0,0-.673,2.2,23.307,23.307,0,0,1,2.4-.29,1.337,1.337,0,1,1,.189,2.662,20.959,20.959,0,0,0-2.931.414,33.331,33.331,0,0,0,.048,4.322,1.367,1.367,0,0,1-1.316,1.426h-.1a1.39,1.39,0,0,1-1.413-1.241,37.772,37.772,0,0,1-.084-3.833c-.436.119-.88.233-1.338.361a32.754,32.754,0,0,1-.251,3.428,1.406,1.406,0,0,1-1.575,1.166,1.364,1.364,0,0,1-1.237-1.492c.1-.779.172-1.571.207-2.359-.194.057-.4.1-.6.15a1.417,1.417,0,0,1-1.716-.959,1.342,1.342,0,0,1,1.017-1.637c.449-.106.88-.211,1.307-.321A13.6,13.6,0,0,0,26.243,32.974ZM39.921,35.21a2.467,2.467,0,0,0-2.271-.849,1.389,1.389,0,0,1-1.5-1.245A1.367,1.367,0,0,1,37.474,31.7a5.274,5.274,0,0,1,4.8,2.042,4.281,4.281,0,0,1,.238,4.476,6.058,6.058,0,0,1-4.476,2.9l-.075,1.373a1.382,1.382,0,0,1-1.408,1.263H36.48a1.36,1.36,0,0,1-1.338-1.4l.136-2.5a1.371,1.371,0,0,1,1.338-1.263c1.65-.079,2.878-.656,3.375-1.58A1.725,1.725,0,0,0,39.921,35.21ZM37.6,49.349a4.02,4.02,0,0,1-2.214.911,4.615,4.615,0,0,1-.1,1.492c-.422,1.769-1.906,3.279-4.185,4.247a1.367,1.367,0,0,1-.581.123h-.044A1.409,1.409,0,0,1,29.852,56c-2.262-.964-3.741-2.478-4.168-4.247a4.662,4.662,0,0,1-.1-1.518A3.994,3.994,0,0,1,21.8,45.415,1.4,1.4,0,0,1,23.418,44.3a1.349,1.349,0,0,1,1.175,1.531,1.573,1.573,0,0,0,.515,1.536c.612.427,1.637.066,2.2-.194a1.49,1.49,0,0,1,1.738.387A1.285,1.285,0,0,1,29,49.248a2.1,2.1,0,0,0-.55,1.919,3.627,3.627,0,0,0,2.033,2.148,3.612,3.612,0,0,0,2.046-2.148,2.02,2.02,0,0,0-.546-1.87,1.284,1.284,0,0,1-.018-1.707,1.474,1.474,0,0,1,1.769-.339c.845.427,1.5.475,1.954.136a1.483,1.483,0,0,0,.572-1.215,1.3,1.3,0,0,1,.81-1.721,1.451,1.451,0,0,1,1.835.77A3.875,3.875,0,0,1,37.6,49.349Zm9.787-10.967a8.347,8.347,0,0,1-6.408,5.668,1.164,1.164,0,0,1-.348.048,1.393,1.393,0,0,1-1.364-1.012,1.33,1.33,0,0,1,1.021-1.619,5.591,5.591,0,0,0,4.37-3.807,5.835,5.835,0,0,0-1.619-5.813c-1.641-1.549-4.071-2-6.839-1.276a1.464,1.464,0,0,1-1.527-.519,1.261,1.261,0,0,1-.009-1.531,5.886,5.886,0,0,0,.594-5.224,8.562,8.562,0,0,0-4.775-5.189A8.557,8.557,0,0,0,25.707,23.3,5.874,5.874,0,0,0,26.3,28.52a1.261,1.261,0,0,1-.013,1.54,1.466,1.466,0,0,1-1.549.5c-4.735-1.333-7.464.7-8.441,3.037-.929,2.231-.506,5.259,2.1,6.487a1.293,1.293,0,0,1,.634,1.791,1.464,1.464,0,0,1-1.892.6,7.464,7.464,0,0,1-3.481-9.858c1.166-2.794,4.194-5.519,9.132-5.118A9.151,9.151,0,0,1,23,22.531a11.289,11.289,0,0,1,6.909-7.09,1.325,1.325,0,0,1,.572-.1,1.382,1.382,0,0,1,.572.1,11.3,11.3,0,0,1,6.914,7.09,9.091,9.091,0,0,1,.185,5.034,9.162,9.162,0,0,1,6.892,2.39A8.473,8.473,0,0,1,47.389,38.383Z" transform="translate(-5.105 -5.599)" fill="#7ba22e"/><path d="M49.465,22.376l4.445-7.948a8.394,8.394,0,0,1,.775-1.14l0-.035s-.339.07-.88.128l-2.816.295a.327.327,0,0,0-.321.4l.075.7-1.95.207L48.6,13.214c-.079-.77.211-1.149.995-1.232l7.547-.792.141,1.342L52.84,20.5a7.163,7.163,0,0,1-.775,1.14l0,.031s.339-.066.88-.123l3.177-.334a.325.325,0,0,0,.321-.4l-.075-.7,1.932-.2.185,1.769c.084.783-.211,1.149-.995,1.232l-7.891.827-.141-1.36Zm9.682-6c-.11-.238-.242-.273-.488-.246l-.229.026-.185-1.769,1.426-.15a1.011,1.011,0,0,1,1.267.726l1.716,4.506a6.774,6.774,0,0,1,.255.867l.031,0a6.889,6.889,0,0,1,.106-.907l.968-5.615,1.835-.194,2.13,5.29a5.974,5.974,0,0,1,.273.863l.031,0a7.662,7.662,0,0,1,.07-.9l.726-4.762c.1-.656.4-.9,1.091-.977l1.426-.15.185,1.769-.229.022c-.246.026-.356.088-.427.343l-1.338,6.5-2.341.246-1.928-4.616a7.394,7.394,0,0,1-.29-.88l-.031,0s-.035.466-.119.924L64.172,22.2l-2.359.246-2.667-6.064ZM72.925,9.534l1.8-.189.2,1.914-1.8.189-.2-1.914Zm.471,5.413a.319.319,0,0,0-.4-.321l-.656.07-.185-1.769,1.98-.207c.77-.079,1.131.229,1.215,1l.537,5.127a.325.325,0,0,0,.4.321l.656-.07.185,1.752-1.98.207c-.77.084-1.131-.211-1.215-1L73.4,14.947Zm7.873,4.022a2.156,2.156,0,0,0,1.668-2.394l-.022-.2-.361.04c-1.083.114-2.781.458-2.662,1.6a1.122,1.122,0,0,0,1.377.951ZM82.5,14.983l.229-.026,0-.066c-.128-1.2-.647-1.589-1.712-1.474-.374.04-1.1.216-1.056.673l.044.44-1.932.2-.092-.885c-.163-1.54,2.011-1.95,2.882-2.042,2.781-.295,3.754,1.078,3.952,2.944l.326,3.111a.325.325,0,0,0,.4.321l.656-.066.185,1.752c-.286.295-.832.9-.783,1.373.057.524.863.506.863.506l-.33,1.589s-2.033.031-2.178-1.36a2.413,2.413,0,0,1,.893-1.914l0-.035-.409.044a.9.9,0,0,1-1.091-.761l-.009-.084a1.721,1.721,0,0,1,0-.33l-.031,0a2.7,2.7,0,0,1-2.4,1.743,2.637,2.637,0,0,1-3.089-2.306c-.277-2.632,3.3-3.208,4.7-3.353Zm4.511,3.7,3.353-5.1a7.037,7.037,0,0,1,.621-.845l0-.035a7.111,7.111,0,0,1-.766.114l-1.505.158a.325.325,0,0,0-.321.4l.048.475-1.884.2L86.4,12.545c-.079-.77.211-1.149.995-1.232l6.121-.643.119,1.131-3.353,5.1a9.95,9.95,0,0,1-.625.845l0,.035a4.622,4.622,0,0,1,.779-.132l1.835-.194a.322.322,0,0,0,.321-.4l-.048-.458,1.884-.2.154,1.474c.084.783-.211,1.149-.981,1.228l-6.482.682-.11-1.113Zm13.66-5.624a1.631,1.631,0,0,0-1.747-1.523,2.012,2.012,0,0,0-1.87,1.9l3.617-.378ZM98.754,9.931c2.39-.251,3.886,1.364,4.115,3.573.026.246.031.775.031.775l-5.765.607a2.416,2.416,0,0,0,2.742,1.98,3.821,3.821,0,0,0,2.244-1.179l1.021,1.351a5.109,5.109,0,0,1-3.221,1.615,4.3,4.3,0,0,1-4.946-3.9,4.144,4.144,0,0,1,3.78-4.823ZM104.3,8.386a.321.321,0,0,0-.4-.321l-.656.07-.185-1.769,1.98-.211c.77-.079,1.131.062,1.215.832l.555,5.272.621-.066a.917.917,0,0,0,.753-.392l1.426-2.816,2.31-.242-1.782,3.367a2,2,0,0,1-.555.722l0,.035a1.4,1.4,0,0,1,.66.594l1.14,1.7c.154.233.326.277.722.238l.559-.057.185,1.752-1.54.163a1.184,1.184,0,0,1-1.386-.581L108.259,14.2a.8.8,0,0,0-.8-.229l-.458.048.383,3.653-2.082.22-1-9.51ZM51.494,29.558a.325.325,0,0,0-.4-.321l-.7.075L50.2,27.494l2.095-.22c.788-.084,1.149.224,1.232.995l.4,3.815,5.127-.537-.4-3.815a.965.965,0,0,1,.995-1.228l2.095-.22.189,1.818-.7.075a.327.327,0,0,0-.321.4l.995,9.448-2.143.224-.515-4.88-5.127.537.515,4.88-2.143.224-1-9.448ZM67.1,36.027a2.155,2.155,0,0,0,1.668-2.394l-.022-.2-.361.04c-1.083.114-2.786.44-2.662,1.6a1.121,1.121,0,0,0,1.377.951Zm1.206-3.983.26-.026,0-.066c-.128-1.2-.647-1.589-1.712-1.474-.374.04-1.1.216-1.056.673l.044.44-1.932.2-.092-.885c-.163-1.553,2.011-1.95,2.882-2.042,2.781-.295,3.754,1.078,3.952,2.944l.326,3.111a.325.325,0,0,0,.4.321l.656-.07.185,1.752-1.866.194c-.77.079-1.109-.312-1.162-.805-.022-.211-.022-.361-.022-.361l-.031,0A2.735,2.735,0,0,1,66.764,37.7a2.655,2.655,0,0,1-3.125-2.306c-.268-2.61,3.309-3.2,4.669-3.345Zm4.92-1.509a.319.319,0,0,0-.4-.321l-.656.07-.185-1.769,1.9-.2c.735-.079,1.144.194,1.219.9l.053.493a4.207,4.207,0,0,1,.022.528l.035,0A2.89,2.89,0,0,1,77.648,27.8a2.689,2.689,0,0,1,.378,0l.216,2.046a3.427,3.427,0,0,0-.51.018,2.359,2.359,0,0,0-2.09,1.989,5.086,5.086,0,0,0-.035,1.377l.348,3.309-2.064.216-.66-6.218Zm9.924-3.393c1.078-.114,3.076.123,3.226,1.567l.106.981-1.835.194-.048-.458c-.048-.458-.757-.581-1.263-.528a2.6,2.6,0,0,0,.678,5.162,3.789,3.789,0,0,0,2.354-1.391l1.021,1.351A4.8,4.8,0,0,1,84.029,35.9a4.4,4.4,0,1,1-.876-8.753Zm10.4,2.236A1.633,1.633,0,0,0,91.8,27.855a2.012,2.012,0,0,0-1.87,1.9l3.622-.378Zm-1.919-3.129c2.39-.251,3.886,1.364,4.115,3.573.026.246.031.775.031.775l-5.765.607a2.418,2.418,0,0,0,2.742,1.98A3.821,3.821,0,0,0,95,32l1.021,1.351A5.109,5.109,0,0,1,92.8,34.971a4.3,4.3,0,0,1-4.946-3.9,4.143,4.143,0,0,1,3.78-4.823Zm5.959,1.725a.319.319,0,0,0-.4-.321l-.656.066-.189-1.769,1.9-.2c.735-.079,1.144.194,1.219.9l.053.493a4.207,4.207,0,0,1,.022.528l.031,0A2.89,2.89,0,0,1,102,25.241a3.182,3.182,0,0,1,.383-.009l.216,2.046a3.147,3.147,0,0,0-.51.022A2.363,2.363,0,0,0,100,29.29a5.08,5.08,0,0,0-.035,1.377l.348,3.309-2.064.216-.656-6.218Zm7.151,2.856a3.754,3.754,0,0,0,2.618.968c.638-.066,1.1-.383,1.043-.937-.123-1.179-4.528-.7-4.81-3.4-.176-1.668,1.25-2.6,2.984-2.781,1.131-.119,2.971.07,3.111,1.426l.092.867-1.835.194-.044-.409c-.044-.392-.651-.528-1.109-.48-.735.075-1.219.392-1.166.885.136,1.311,4.546.581,4.841,3.367.167,1.571-1.122,2.7-2.94,2.891a4.591,4.591,0,0,1-3.626-1.127l.841-1.461Zm7.239-4.85-1.078.114-.176-1.655,1.131-.119-.238-2.275,2.029-.216.242,2.275,1.9-.2.176,1.655-1.9.2.352,3.371a1.492,1.492,0,0,0,1.818,1.4,1.668,1.668,0,0,0,.374-.075l.189,1.818a3.424,3.424,0,0,1-.634.114c-1.162.123-3.507.022-3.8-2.777l-.383-3.631Zm5.4-.154c-.106-.238-.242-.273-.488-.246l-.229.022-.185-1.769,1.426-.15a1.011,1.011,0,0,1,1.267.726l1.716,4.506a7.725,7.725,0,0,1,.255.867l.031,0a7.342,7.342,0,0,1,.1-.907l.964-5.615,1.835-.194,2.13,5.29a5.975,5.975,0,0,1,.273.863l.031,0a7.725,7.725,0,0,1,.07-.9l.726-4.762c.1-.656.4-.9,1.091-.977l1.426-.15L130,24.189l-.229.026c-.246.026-.356.088-.427.343l-1.338,6.5-2.341.246-1.923-4.616a7.392,7.392,0,0,1-.29-.88l-.035,0s-.035.466-.119.924l-.907,4.911-2.359.246-2.658-6.064Zm17.145,3.116a2.155,2.155,0,0,0,1.668-2.394l-.022-.2-.361.04c-1.083.114-2.786.44-2.662,1.6a1.122,1.122,0,0,0,1.377.951Zm1.2-3.983.264-.026-.009-.066c-.128-1.2-.647-1.589-1.712-1.474-.378.04-1.1.216-1.056.673l.048.44-1.932.2-.092-.885c-.163-1.553,2.011-1.95,2.883-2.042,2.781-.29,3.754,1.078,3.952,2.944l.326,3.111a.325.325,0,0,0,.4.321l.656-.07.185,1.752-1.866.2c-.77.079-1.109-.312-1.162-.805-.022-.211-.022-.361-.022-.361l-.035,0a2.735,2.735,0,0,1-2.368,1.738,2.655,2.655,0,0,1-3.125-2.306c-.268-2.614,3.309-3.208,4.669-3.349Zm-78.369,23.2a1.81,1.81,0,0,0,1.69-2.2,1.783,1.783,0,0,0-2.073-1.769l-1.752.185.418,3.961,1.716-.18ZM53.074,44.6l-1.065.11-.189-1.818,5.321-.559a3.583,3.583,0,0,1,4.1,3.393,3.62,3.62,0,0,1-3.3,4.22l-2.112.22.422,4.009L54.1,54.4l-1.03-9.8Zm13.915,6.865a2.621,2.621,0,1,0-2.75-2.341,2.5,2.5,0,0,0,2.75,2.341Zm-.735-6.975a4.4,4.4,0,1,1-4.106,4.854,4.407,4.407,0,0,1,4.106-4.854Zm6.187-1.611a.319.319,0,0,0-.4-.321l-.656.07L71.2,40.859l1.98-.207a.972.972,0,0,1,1.232.995l.885,8.4a.327.327,0,0,0,.4.321l.638-.066.185,1.752-1.963.207c-.788.084-1.149-.211-1.228-.995l-.885-8.388Zm5.567,6.333a3.738,3.738,0,0,0,2.618.964c.638-.066,1.1-.378,1.043-.937-.123-1.179-4.528-.7-4.81-3.4-.176-1.668,1.25-2.6,2.984-2.781,1.131-.119,2.971.07,3.111,1.426l.092.867-1.835.194-.044-.409c-.04-.4-.651-.528-1.109-.48-.735.079-1.219.392-1.166.885.136,1.311,4.546.581,4.841,3.367.167,1.571-1.122,2.7-2.94,2.891a4.591,4.591,0,0,1-3.626-1.127l.841-1.457Zm6.843-7.64a.321.321,0,0,0-.4-.321l-.656.07-.185-1.769,1.98-.207c.77-.079,1.131.066,1.215.832l.555,5.272.621-.066a.923.923,0,0,0,.753-.392l1.426-2.816,2.31-.242L90.691,45.3a2,2,0,0,1-.554.722l0,.031a1.381,1.381,0,0,1,.656.594l1.14,1.7c.154.233.326.282.722.238l.554-.062.185,1.752-1.54.163a1.189,1.189,0,0,1-1.386-.581L88.8,47.381a.8.8,0,0,0-.8-.229l-.458.048.383,3.653-2.077.22-1-9.5Zm9.057-3.1,1.8-.189.2,1.914-1.8.189-.2-1.914Zm.471,5.413a.319.319,0,0,0-.4-.321l-.656.07-.185-1.769,1.98-.207c.77-.079,1.135.229,1.215,1l.541,5.122a.325.325,0,0,0,.4.321l.656-.07.185,1.752-1.98.207c-.77.079-1.131-.211-1.215-1l-.541-5.1Zm9.911-.066a1.633,1.633,0,0,0-1.752-1.523,2.012,2.012,0,0,0-1.87,1.9l3.622-.378Zm-1.919-3.125c2.39-.251,3.886,1.364,4.115,3.573.026.246.031.775.031.775l-5.765.607a2.416,2.416,0,0,0,2.742,1.98,3.821,3.821,0,0,0,2.244-1.179l1.021,1.351a5.109,5.109,0,0,1-3.221,1.615,4.3,4.3,0,0,1-4.946-3.9,4.146,4.146,0,0,1,3.78-4.823Zm11.455,3.019c-.2-1.9-1.2-2.306-2.332-2.187-1.259.132-1.853,1.122-1.7,2.53.154,1.457,1,2.46,2.346,2.319,1-.11,1.888-.779,1.69-2.662Zm-2.878-3.921a2.833,2.833,0,0,1,2.693.911l.031,0s-.009-.1-.022-.211c-.04-.374.18-.8.836-.867l1.932-.2.185,1.769-.634.066a.322.322,0,0,0-.326.365l.6,5.747c.3,2.865-1.813,4.181-3.987,4.41a6.652,6.652,0,0,1-3.037-.409l.466-1.7a5.4,5.4,0,0,0,2.368.312c1.263-.132,2.3-.788,2.143-2.293l-.04-.392c-.022-.2-.031-.444-.031-.444l-.031,0a2.592,2.592,0,0,1-2.209,1.325c-2.39.251-3.952-1.536-4.194-3.829s.845-4.3,3.252-4.555Zm11.622,5.831a2.621,2.621,0,1,0-2.746-2.341,2.5,2.5,0,0,0,2.746,2.341Zm-.735-6.975A4.4,4.4,0,1,1,117.73,43.5a4.407,4.407,0,0,1,4.106-4.854Z" transform="translate(0.992 -6.135)" fill="#7ba22e"/></svg>